# xmcd
#
# Track frame offsets:
#	150
#	16038
#	33302
#	46367
#	60627
#	74599
#	86980
#	99353
#	110891
#	126341
#	144141
#	162044
#	175455
#	193892
#	211502
#
# Disc length: 3221 seconds
# Revision: 0
# Processed by: cddbd v1.5.2PL0 Copyright (c) Steve Scherf et al.
# Submitted via: dBpowerAMP V12.0
#
DISCID=d10c930f
DTITLE=Jim Lauderdale - When Carolina Comes Home Again
DYEAR=2020
DGENRE=Bluegrass
TTITLE0=When Carolina Comes Home Again
TTITLE1=As a Sign
TTITLE2=Misery's Embrace
TTITLE3=The Last to Know
TTITLE4=It Just Takes One to Wander
TTITLE5=Cackalacky
TTITLE6=You'll  Have to Earn It
TTITLE7=You've Got This
TTITLE8=Mountaineer
TTITLE9=I'm Here to Remind You
TTITLE10=Moonrider
TTITLE11=Spin a Yarn
TTITLE12=Are You Leaving This World Better Than You Found It
TTITLE13=Trashcan Tomcat
TTITLE14=Headed for the Hills
EXTD=
EXTT0=
EXTT1=
EXTT2=
EXTT3=
EXTT4=
EXTT5=
EXTT6=
EXTT7=
EXTT8=
EXTT9=
EXTT10=
EXTT11=
EXTT12=
EXTT13=
EXTT14=
PLAYORDER=
